<svg width="300" height="300" viewBox="0 0 300 300" fill="none" xmlns="http://www.w3.org/2000/svg"><path fill-rule="evenodd" clip-rule="evenodd" d="M150 300C232.843 300 300 232.843 300 150C300 67.1573 232.843 0 150 0C67.1573 0 0 67.1573 0 150C0 232.843 67.1573 300 150 300ZM150 230C194.183 230 230 194.183 230 150C230 105.817 194.183 70 150 70C105.817 70 70 105.817 70 150C70 194.183 105.817 230 150 230Z" fill="black" fill-opacity="0.1"></path><circle cx="150" cy="150" r="80" fill="black" fill-opacity="0.4"></circle><path fill-rule="evenodd" clip-rule="evenodd" d="M150 260C210.751 260 260 210.751 260 150C260 89.2487 210.751 40 150 40C89.2487 40 40 89.2487 40 150C40 210.751 89.2487 260 150 260ZM132.343 189.935L186.441 158.407C192.853 154.671 192.853 145.329 186.441 141.593L132.343 110.065C125.931 106.329 117.917 110.999 117.917 118.472V181.528C117.917 189.001 125.931 193.671 132.343 189.935Z" fill="white"></path></svg>
